<svg width="32" height="24" viewBox="0 0 32 24" fill="none" xmlns="http://www.w3.org/2000/svg">
<path d="M26.5 4V7.5H25.5V4C25.4995 3.60234 25.3413 3.22111 25.0601 2.93992C24.7789 2.65873 24.3977 2.50053 24 2.5H20.5V1.5H24C24.6628 1.50079 25.2982 1.76444 25.7669 2.23311C26.2356 2.70178 26.4992 3.3372 26.5 4ZM8 21.5C7.60234 21.4995 7.22111 21.3413 6.93992 21.0601C6.65873 20.7789 6.50053 20.3977 6.5 20V16.5H5.5V20C5.50079 20.6628 5.76444 21.2982 6.23311 21.7669C6.70178 22.2356 7.3372 22.4992 8 22.5H11.5V21.5H8ZM25.5 20C25.4995 20.3977 25.3413 20.7789 25.0601 21.0601C24.7789 21.3413 24.3977 21.4995 24 21.5H20.5V22.5H24C24.6628 22.4992 25.2982 22.2356 25.7669 21.7669C26.2356 21.2982 26.4992 20.6628 26.5 20V16.5H25.5V20ZM6.5 4C6.50053 3.60234 6.65873 3.22111 6.93992 2.93992C7.22111 2.65873 7.60234 2.50053 8 2.5H11.5V1.5H8C7.3372 1.50079 6.70178 1.76444 6.23311 2.23311C5.76444 2.70178 5.50079 3.3372 5.5 4V7.5H6.5V4ZM13.5 18.5V5.5H12.5V18.5H13.5ZM9.5 5.5V18.5H11.5V5.5H9.5ZM17.5 18.5V5.5H15.5V18.5H17.5ZM20.5 5.5V18.5H22.5V5.5H20.5ZM18.5 5.5V18.5H19.5V5.5H18.5Z" fill="black"/>
</svg>
