<svg width="24" height="24" viewBox="0 0 24 24" fill="none" xmlns="http://www.w3.org/2000/svg">
<path d="M20.6571 10.8429C20.5286 10.7572 20.3143 10.8001 20.1857 10.8858L16.8857 13.5001V11.0143C16.8857 10.8429 16.8 10.7143 16.6714 10.6286C16.5429 10.5429 16.3714 10.5858 16.2429 10.6715L12.2143 13.5858L12 10.8858C12 10.7572 11.9143 10.5858 11.7857 10.5429C11.6571 10.4572 11.4857 10.5001 11.3571 10.5429L6.51428 13.4572V9.51434C6.81428 9.34291 7.07143 9.12862 7.24286 8.82862C7.45714 8.91434 7.71428 8.91434 7.97143 8.91434C8.91428 8.91434 9.72857 8.40005 10.1571 7.62862C10.2857 7.62862 10.4143 7.67148 10.5857 7.67148C12.3429 7.67148 13.7571 6.25719 13.7571 4.50005C13.7571 2.74291 12.3429 1.28577 10.5857 1.28577C9 1.28577 7.71428 2.40005 7.45714 3.94291C6.34286 4.1572 5.52857 5.10005 5.44286 6.2572C4.62857 6.38577 3.98571 7.11434 3.98571 7.97148C3.98571 8.01434 3.98571 8.05719 3.98571 8.05719H3.55714C3.3 8.05719 3.12857 8.22862 3.12857 8.48577V22.2858C3.12857 22.5429 3.3 22.7143 3.55714 22.7143H20.4857C20.7429 22.7143 20.9143 22.5429 20.9143 22.2858V11.2286C20.8714 11.0572 20.7857 10.9286 20.6571 10.8429ZM4.84286 7.97148C4.84286 7.4572 5.22857 7.07148 5.74286 7.07148C5.78571 7.07148 5.82857 7.07148 5.87143 7.07148C6 7.07148 6.12857 7.02862 6.21428 6.94291C6.3 6.8572 6.34286 6.72862 6.34286 6.60005C6.34286 6.51434 6.34286 6.47148 6.34286 6.38577C6.34286 5.52862 7.02857 4.7572 7.88571 4.71434C8.1 4.71434 8.27143 4.54291 8.27143 4.32862C8.31428 3.08577 9.34286 2.14291 10.5857 2.14291C11.8714 2.14291 12.9 3.17148 12.9 4.50005C12.9 5.78577 11.8714 6.81434 10.5857 6.81434C10.4143 6.81434 10.2 6.77148 10.0286 6.72862C9.81428 6.68577 9.6 6.77148 9.51428 6.98577C9.25714 7.62862 8.65714 8.05719 7.97143 8.05719C7.71428 8.05719 7.45714 8.01434 7.2 7.88577C7.07143 7.84291 6.94286 7.84291 6.81428 7.88577C6.68571 7.92862 6.6 8.0572 6.55714 8.18577C6.55714 8.27148 6.51428 8.3572 6.47143 8.44291C6.42857 8.22862 6.25714 8.10005 6.04286 8.10005H4.8C4.84286 8.0572 4.84286 8.01434 4.84286 7.97148ZM4.5 8.91434H5.65714V9.60005H3.98571V8.91434H4.5ZM20.0143 21.8572H3.98571V10.5001H5.65714V14.2286C5.65714 14.4001 5.74286 14.5286 5.87143 14.6143C6 14.7001 6.17143 14.7001 6.3 14.6143L11.1857 11.7001L11.4 14.4429C11.4 14.6143 11.4857 14.7429 11.6571 14.7858C11.7857 14.8715 11.9571 14.8286 12.0857 14.7429L16.0714 11.8715V14.4001C16.0714 14.5715 16.1571 14.7001 16.3286 14.7858C16.4571 14.8715 16.6714 14.8286 16.8 14.7429L20.1 12.1286V21.8572H20.0143Z" fill="black"/>
<path d="M17.2714 20.5715H19.1143C19.3714 20.5715 19.5428 20.4 19.5428 20.1429V18.3C19.5428 18.0429 19.3714 17.8715 19.1143 17.8715H17.2714C17.0143 17.8715 16.8428 18.0429 16.8428 18.3V20.1429C16.8428 20.4 17.0143 20.5715 17.2714 20.5715ZM17.7 18.7286H18.6857V19.7143H17.7V18.7286Z" fill="black"/>
<path d="M11.8714 17.8715H10.0286C9.77143 17.8715 9.60001 18.0429 9.60001 18.3V20.1429C9.60001 20.4 9.77143 20.5715 10.0286 20.5715H11.8714C12.1286 20.5715 12.3 20.4 12.3 20.1429V18.3C12.3 18.0857 12.0857 17.8715 11.8714 17.8715ZM11.4429 19.7143H10.4571V18.7286H11.4429V19.7143Z" fill="black"/>
<path d="M8.27143 15.5573H6.42857C6.17143 15.5573 6 15.7287 6 15.9858V17.8287C6 18.0858 6.17143 18.2573 6.42857 18.2573H8.27143C8.52857 18.2573 8.7 18.0858 8.7 17.8287V15.9858C8.7 15.7715 8.48571 15.5573 8.27143 15.5573ZM7.84286 17.443H6.85714V16.4573H7.84286V17.443Z" fill="black"/>
<path d="M15.4714 15.5573H13.6286C13.3714 15.5573 13.2 15.7287 13.2 15.9858V17.8287C13.2 18.0858 13.3714 18.2573 13.6286 18.2573H15.4714C15.7286 18.2573 15.9 18.0858 15.9 17.8287V15.9858C15.9 15.7715 15.7286 15.5573 15.4714 15.5573ZM15.0429 17.443H14.0571V16.4573H15.0429V17.443Z" fill="black"/>
</svg>
